<svg id="Layer_1" data-name="Layer 1" xmlns="http://www.w3.org/2000/svg" viewBox="0 0 841.89 706.28"><defs><style>.cls-1{fill:#202146;}</style></defs><title>Logo - AB 16</title><path class="cls-1" d="M476,321.54l245.89-32.09a.68.68,0,0,0,.33-.13h0c11.21-8.14,5.45-25.88-8.41-25.88H536.08a4.47,4.47,0,0,0-3.08,1.24l-57.55,55.65A.71.71,0,0,0,476,321.54Z"/><path class="cls-1" d="M403.57,350l-.57-.57,83.33-83.32a5.44,5.44,0,0,0,.16-7.43,13.52,13.52,0,0,1-2.63-4.67L416.09,45.52C412,33,394.3,33,390.23,45.52L322.49,254.05a13.59,13.59,0,0,1-12.93,9.39H90.28c-13.17,0-18.64,16.85-8,24.59l177.4,128.89a13.58,13.58,0,0,1,4.94,15.2L196.89,640.63c-4.07,12.53,10.27,23,20.92,15.2L395.17,527a13.6,13.6,0,0,1,16,0l80.47,58.45a5.37,5.37,0,0,0,8.11-6.43Z"/><path class="cls-1" d="M533.69,450.12a13.61,13.61,0,0,1,4.94-15.21L651,341.07a2.11,2.11,0,0,0-1.67-3.77l-199,24.32c-.35.07-.69.11-1,.16l98.26,248.57a19.81,19.81,0,0,1,.59,13.77,2.78,2.78,0,0,0,1,3.12l39.36,28.59c10.66,7.75,25-2.67,20.92-15.2Z"/></svg>