<svg id="Layer_1" data-name="Layer 1" xmlns="http://www.w3.org/2000/svg" viewBox="0 0 841.89 595.28"><defs><style>.cls-1{fill:#202146;}</style></defs><title>Logo - Updated</title><path class="cls-1" d="M166.69,284.75l93.42-12.19a.29.29,0,0,0,.13-.05h0a5.43,5.43,0,0,0-3.2-9.83H189.5a1.68,1.68,0,0,0-1.16.47l-21.87,21.14A.27.27,0,0,0,166.69,284.75Z"/><path class="cls-1" d="M139.16,295.58l-.21-.22,31.65-31.65a2.07,2.07,0,0,0,.07-2.83,4.91,4.91,0,0,1-1-1.77l-25.75-79.22a5.16,5.16,0,0,0-9.82,0l-25.74,79.22a5.17,5.17,0,0,1-4.92,3.57H20.14a5.17,5.17,0,0,0-3,9.34l67.4,49a5.18,5.18,0,0,1,1.88,5.78L60.64,406a5.16,5.16,0,0,0,8,5.77l67.38-49a5.18,5.18,0,0,1,6.07,0L172.61,385a2,2,0,0,0,3.09-2.44Z"/><path class="cls-1" d="M188.6,333.6a5.17,5.17,0,0,1,1.87-5.78l42.7-35.65a.8.8,0,0,0-.63-1.43L157,300l-.4.06,37.34,94.43a7.56,7.56,0,0,1,.22,5.23,1.05,1.05,0,0,0,.38,1.19l14.95,10.86a5.16,5.16,0,0,0,7.95-5.77Z"/><path class="cls-1" d="M240.8,357.64a41.16,41.16,0,0,1,3.12-16.21,38.45,38.45,0,0,1,8.67-12.75,39.58,39.58,0,0,1,12.86-8.33,41.42,41.42,0,0,1,15.59-3,43.5,43.5,0,0,1,15.47,2.72,37.17,37.17,0,0,1,12.69,8,35.06,35.06,0,0,1,8.45,13H302.12a21.09,21.09,0,0,0-5.22-6.91,21.33,21.33,0,0,0-7.14-4.08,26.63,26.63,0,0,0-8.72-1.36,27.5,27.5,0,0,0-13.94,3.51,24.58,24.58,0,0,0-9.58,10,35.93,35.93,0,0,0,0,30.77,25,25,0,0,0,9.58,10.09,28.86,28.86,0,0,0,22.66,2.21,21.68,21.68,0,0,0,7.14-4.08,21.13,21.13,0,0,0,5.22-6.92h15.53a35.06,35.06,0,0,1-8.45,13,36.28,36.28,0,0,1-12.69,7.93A44.15,44.15,0,0,1,281,397.88a41.22,41.22,0,0,1-15.59-2.95,39.42,39.42,0,0,1-12.86-8.33,38.45,38.45,0,0,1-8.67-12.75A41.16,41.16,0,0,1,240.8,357.64Z"/><path class="cls-1" d="M323.43,365.69a34.38,34.38,0,0,1,4-16.83,29,29,0,0,1,10.66-11.17,28.61,28.61,0,0,1,14.85-4,28.17,28.17,0,0,1,9.46,1.48,27.47,27.47,0,0,1,7.2,3.74,23.57,23.57,0,0,1,5,4.87v-9.07h13V397.2h-13v-9.3a22,22,0,0,1-5.1,5.05,28.05,28.05,0,0,1-7.36,3.79,28.37,28.37,0,0,1-9.41,1.48,27.4,27.4,0,0,1-14.73-4.14,29.45,29.45,0,0,1-10.6-11.45A35.33,35.33,0,0,1,323.43,365.69Zm51.11.22a22.36,22.36,0,0,0-2.72-11.39,18.82,18.82,0,0,0-7-7.14,18.44,18.44,0,0,0-9.18-2.43,18.77,18.77,0,0,0-9.13,2.38,18.35,18.35,0,0,0-7.08,7,21.93,21.93,0,0,0-2.72,11.39,22.94,22.94,0,0,0,2.72,11.5,18.81,18.81,0,0,0,7.08,7.31,18.17,18.17,0,0,0,9.13,2.5,18.45,18.45,0,0,0,9.18-2.44,18.64,18.64,0,0,0,7-7.2A22.64,22.64,0,0,0,374.54,365.91Z"/><path class="cls-1" d="M399.59,397.2V334.74h12.92V397.2Zm12.92-32.87-3.85-4.54a35.47,35.47,0,0,1,1.42-10.2,25,25,0,0,1,4.19-8.33,18.77,18.77,0,0,1,7-5.55,23.21,23.21,0,0,1,9.91-2V347.1h-3.28a22.55,22.55,0,0,0-6.41.85,11.53,11.53,0,0,0-4.87,2.78,12.57,12.57,0,0,0-3.06,5.27A27.44,27.44,0,0,0,412.51,364.33Z"/><path class="cls-1" d="M444.93,370.79l.11-10.43h36.84a16.39,16.39,0,0,0-1.48-6.52,15.13,15.13,0,0,0-3.74-5,16.24,16.24,0,0,0-5.49-3.18,20.76,20.76,0,0,0-6.75-1.07,16.62,16.62,0,0,0-15,8.89,21.13,21.13,0,0,0-2.32,10.26v5a19.61,19.61,0,0,0,2.38,9.86,16.64,16.64,0,0,0,6.46,6.46,18.36,18.36,0,0,0,9.07,2.27q6,0,9.46-2.55a17.1,17.1,0,0,0,5.27-6.18h13.94a27.16,27.16,0,0,1-5.55,9.86,28.17,28.17,0,0,1-9.63,7.08,34.71,34.71,0,0,1-29.47-1.3A28.64,28.64,0,0,1,437.9,383a38.15,38.15,0,0,1-.11-34.11,28.12,28.12,0,0,1,11-11.17,32.45,32.45,0,0,1,16.21-4,31.37,31.37,0,0,1,15.75,3.86,27.85,27.85,0,0,1,10.71,10.77,32.09,32.09,0,0,1,3.91,16.09c0,1.06,0,2.12-.11,3.17s-.19,2.12-.34,3.18Z"/><path class="cls-1" d="M506.86,316h17v33.67L555,316H576.7l-32.49,33.2,34.65,48.15H556.63L532.11,361.6l-8.26,8.45v27.34h-17Z"/><path class="cls-1" d="M597.22,374.86c0,3.69.8,6.42,2.38,8.2s4,2.65,7.31,2.65q6.2,0,9.52-3.76t3.32-10.85V337.18h15.88v60.21H620.52v-9a16.53,16.53,0,0,1-2,3.1q-5.87,7.47-17,7.47-9.51,0-14.86-5.62t-5.34-15.58V337.18h15.88Z"/><path class="cls-1" d="M667.61,398.94a22.47,22.47,0,0,1-18.56-9Q642,381,642,366.34q0-13.83,7-22.3t18.48-8.47q10.25,0,16.5,8.63l.66.89V316h15.88v81.35H685.16V389.7l-.28.38Q678.3,398.95,667.61,398.94Zm4.27-49.64a11.69,11.69,0,0,0-10,4.89q-3.58,4.9-3.59,13.59,0,8.52,3.57,13.31a12.58,12.58,0,0,0,20-.25q3.6-5,3.59-14,0-8.25-3.59-12.9A11.91,11.91,0,0,0,671.88,349.3Z"/><path class="cls-1" d="M714.57,390.47q-8.34-8.46-8.33-22.85,0-14.73,8.33-23.39T737,335.57q14.22,0,22.52,8.66t8.3,23.39q0,14.38-8.3,22.85T737,398.94Q722.9,398.94,714.57,390.47ZM747.8,381q3.71-4.65,3.71-13.56,0-9.13-3.71-13.86T737,348.85c-4.73,0-8.31,1.58-10.77,4.74s-3.68,7.77-3.68,13.86,1.23,10.46,3.68,13.56,6,4.65,10.77,4.65S745.33,384.11,747.8,381Z"/><path class="cls-1" d="M808.05,355.22a6.58,6.58,0,0,0-2.88-5.59,12.67,12.67,0,0,0-7.64-2.11,13.76,13.76,0,0,0-7.17,1.58,4.91,4.91,0,0,0-2.58,4.4q0,2,2.94,3.43A53.67,53.67,0,0,0,801,360q14.61,3.25,19.54,7.14t4.94,12.17a17,17,0,0,1-7.17,14.25q-7.17,5.4-18.9,5.4-13.89,0-21.4-5.31t-8-15.5h16.16a7.82,7.82,0,0,0,3.68,6.5c2.34,1.57,5.53,2.36,9.55,2.36a14.3,14.3,0,0,0,7.44-1.64,5.09,5.09,0,0,0,2.69-4.56q0-2.06-2.6-3.49a40.12,40.12,0,0,0-9.13-2.82q-15.28-3.44-20.43-7.25t-5.14-11.68a17.83,17.83,0,0,1,6.67-14.47q6.66-5.5,17.57-5.51,12.27,0,19.81,5.4a16.73,16.73,0,0,1,7.52,14.25Z"/></svg>