<svg id="Layer_1" data-name="Layer 1" xmlns="http://www.w3.org/2000/svg" viewBox="0 0 560 530"><defs><style>.cls-1{fill:#202146;}</style></defs><title>Logo - Updated</title><path class="cls-1" d="M472.64,266.6,660.77,242a.49.49,0,0,0,.25-.1h0c8.58-6.23,4.17-19.8-6.44-19.8h-136a3.37,3.37,0,0,0-2.35,1l-44,42.57A.55.55,0,0,0,472.64,266.6Z" transform="translate(-137 -40)"/><path class="cls-1" d="M417.19,288.4l-.44-.43,63.76-63.76a4.16,4.16,0,0,0,.12-5.68,10.25,10.25,0,0,1-2-3.58L426.77,55.42a10.4,10.4,0,0,0-19.79,0L355.15,215a10.39,10.39,0,0,1-9.89,7.19H177.5A10.4,10.4,0,0,0,171.38,241l135.73,98.61a10.38,10.38,0,0,1,3.78,11.62L259.06,510.73a10.41,10.41,0,0,0,16,11.63l135.69-98.6a10.4,10.4,0,0,1,12.23,0l61.56,44.72a4.11,4.11,0,0,0,6.21-4.92Z" transform="translate(-137 -40)"/><path class="cls-1" d="M516.74,365a10.41,10.41,0,0,1,3.78-11.63l86-71.8a1.62,1.62,0,0,0-1.28-2.89L453,297.26l-.78.12,75.17,190.18a15.1,15.1,0,0,1,.46,10.53,2.12,2.12,0,0,0,.75,2.39l30.12,21.88a10.4,10.4,0,0,0,16-11.63Z" transform="translate(-137 -40)"/></svg>